<svg xmlns="http://www.w3.org/2000/svg" height="32" viewBox="0 0 31.999999 31.999996" width="32"><path d="m23.608 8.0015c-0.94188-0.027-1.8841 0.3235-2.582 1.0215-0.98167 0.9425 0.47155 2.3957 1.4141 1.414 0.48348-0.4834 1.2184-0.5801 1.8106-0.2382 0.59214 0.3418 0.87618 1.027 0.69922 1.6875-0.17697 0.6604-0.76548 1.1137-1.4492 1.1137h-19.5c-0.55228 0-1 0.44534-1 0.99764s0.44772 0.9999 1 1h19.5c1.5793 0 2.9721-1.0683 3.3809-2.5938 0.40875-1.5254-0.26316-3.1478-1.6309-3.9375-0.51289-0.2961-1.0774-0.4484-1.6426-0.4648zm-19.608 8.9995c-0.55228 0-1 0.4478-1 1 0 0.5523 0.44772 1 1 1h11.5c0.68374 0 1.2722 0.4509 1.4492 1.1114 0.17696 0.6604-0.10708 1.3456-0.69922 1.6875-0.59214 0.3418-1.3271 0.2452-1.8106-0.2383-0.94251-0.9817-2.3957 0.4715-1.4141 1.414 1.1167 1.1168 2.8569 1.3463 4.2246 0.5567 1.3677-0.7897 2.0396-2.412 1.6309-3.9375-0.40875-1.5254-1.8016-2.5938-3.3809-2.5938zm21-0.001c-0.55396 0-0.99993 0.446-0.99993 1v1.7695l-1.4999-0.86523c-0.47987-0.27677-1.0882-0.11455-1.3651 0.36523-0.27698 0.47978-0.11468 1.0904 0.3652 1.3672l1.4999 0.86523-1.4979 0.86524c-0.47961 0.27723-0.64219 0.88545-0.3652 1.3652 0.27696 0.47977 0.88553 0.64248 1.3651 0.36524l1.4979-0.86524v1.7676c0 0.554 0.44597 1 0.99993 1 0.55395 0 0.99992-0.446 0.99992-1v-1.7695l1.4999 0.86523c0.47988 0.27677 1.0882 0.1126 1.3651-0.36718 0.27698-0.47977 0.11467-1.0885-0.3652-1.3652l-1.4999-0.86523 1.4979-0.86524c0.4796-0.27723 0.64219-0.88545 0.3652-1.3652-0.27697-0.47977-0.88553-0.64443-1.3651-0.36719l-1.498 0.868v-1.768c0-0.554-0.44597-1-0.99992-1z"/></svg>