<svg xmlns="http://www.w3.org/2000/svg" height="32" width="32" viewBox="0 0 31.999999 31.999998"><path d="m16 1028.4c0.554 0 1 0.446 1 1v2.1016a5 5 0 0 1 2.7168 1.5625l1.7832-1.0293c0.47978-0.277 1.0882-0.1146 1.3652 0.3652s0.11455 1.0883-0.36523 1.3653l-1.7734 1.0234a5 5 0 0 1 0.27344 1.6113 5 5 0 0 1 -0.27148 1.6114l1.7715 1.0234c0.47978 0.277 0.64223 0.8854 0.36523 1.3652s-0.88545 0.6423-1.3652 0.3653l-1.7832-1.0293a5 5 0 0 1 -2.7168 1.5586v2.1054c0 0.554-0.446 1-1 1s-1-0.446-1-1v-2.1015a5 5 0 0 1 -2.7148 -1.5625l-1.7852 1.0293c-0.47978 0.277-1.0882 0.1145-1.3652-0.3653s-0.11455-1.0882 0.36523-1.3652l1.7734-1.0234a5 5 0 0 1 -0.27344 -1.6114 5 5 0 0 1 0.27148 -1.6113l-1.7715-1.0234c-0.47978-0.277-0.64223-0.8855-0.36523-1.3653s0.88545-0.6422 1.3652-0.3652l1.7832 1.0293a5 5 0 0 1 2.7168 -1.5586v-2.1055c0-0.554 0.446-1 1-1zm0 5a3 3 0 0 0 -3 3 3 3 0 0 0 3 3 3 3 0 0 0 3 -3 3 3 0 0 0 -3 -3z" transform="translate(0 -1020.4)"/></svg>