<svg xmlns="http://www.w3.org/2000/svg" height="32" viewBox="0 0 31.999999 31.999996" width="32"><path d="m 2,17 2,0 c 0.554,0 1,0.446 1,1 0,0.554 -0.446,1 -1,1 L 2,19 C 1.446,19 1,18.554 1,18 1,17.446 1.446,17 2,17 Z m 29,-5 c 0,0.552285 -0.447715,1 -1,1 -0.552285,0 -1,-0.447715 -1,-1 0,-0.552285 0.447715,-1 1,-1 0.552285,0 1,0.447715 1,1 z M 11,8 C 11,8.5522847 10.552285,9 10,9 9.4477153,9 9,8.5522847 9,8 9,7.4477153 9.4477153,7 10,7 c 0.552285,0 1,0.4477153 1,1 z m 11,11 c 0,0.552285 -0.447715,1 -1,1 -0.552285,0 -1,-0.447715 -1,-1 0,-0.552285 0.447715,-1 1,-1 0.552285,0 1,0.447715 1,1 z m 6,-1.5 C 28,18.328427 27.328427,19 26.5,19 25.671573,19 25,18.328427 25,17.5 25,16.671573 25.671573,16 26.5,16 27.328427,16 28,16.671573 28,17.5 Z M 16,10 c 0,0.552285 -0.447715,1 -1,1 -0.552285,0 -1,-0.447715 -1,-1 0,-0.5522847 0.447715,-1 1,-1 0.552285,0 1,0.4477153 1,1 z m 5,13 c 0,0.552285 -0.447715,1 -1,1 -0.552285,0 -1,-0.447715 -1,-1 0,-0.552285 0.447715,-1 1,-1 0.552285,0 1,0.447715 1,1 z M 29,7 c 0,0.5522847 -0.447715,1 -1,1 -0.552285,0 -1,-0.4477153 -1,-1 0,-0.5522847 0.447715,-1 1,-1 0.552285,0 1,0.4477153 1,1 z m -7.3923,1.0015 c -0.94188,-0.027 -1.8841,0.3235 -2.582,1.0215 -0.98167,0.9425 0.47155,2.3957 1.4141,1.414 0.48348,-0.4834 1.2184,-0.5801 1.8106,-0.2382 0.59214,0.3418 0.87618,1.027 0.69922,1.6875 -0.17697,0.6604 -0.76548,1.113698 -1.4492,1.113698 l -19.501,0 c -0.55228,0 -1,0.445302 -1,0.997602 0,0.5523 0.44772,0.9999 1,1 l 19.5,0 c 1.5793,0 2.9721,-1.0683 3.3809,-2.5938 C 25.28907,10.8784 24.61716,9.256 23.24942,8.4663 22.73653,8.1702 22.17202,8.0179 21.60682,8.0015 Z M 7.9997,17.001 c -0.55228,0 -1,0.4478 -1,1 0,0.5523 0.44772,1 1,1 l 5.5003,0 c 0.68374,0 1.2722,0.4509 1.4492,1.1114 0.17696,0.6604 -0.10708,1.3456 -0.69922,1.6875 -0.59214,0.3418 -1.3271,0.2452 -1.8106,-0.2383 -0.94251,-0.9817 -2.3957,0.4715 -1.4141,1.414 1.1167,1.1168 2.8569,1.3463 4.2246,0.5567 1.3677,-0.7897 2.0396,-2.412 1.6309,-3.9375 -0.40875,-1.5254 -1.8016,-2.5938 -3.3809,-2.5938 z" opacity=".98"/></svg>