<svg xmlns="http://www.w3.org/2000/svg" height="32" width="32" viewBox="0 0 31.999999 31.999998"><path style="text-decoration-color:#000000;isolation:auto;mix-blend-mode:normal;block-progression:tb;text-decoration-line:none;text-decoration-style:solid;text-indent:0;text-transform:none" d="m15.252 1028.4a8 8 0 0 0 -7.252 7.9629 8 8 0 0 0 8 8 8 8 0 0 0 7.748 -6.0372 8 8 0 0 1 -0.74805 0.037 8 8 0 0 1 -8 -8 8 8 0 0 1 0.25195 -1.9629zm-2.0996 2.709c0.34335 4.3644 3.4672 7.8195 7.627 8.8027-1.1028 1.4888-2.8309 2.4487-4.7793 2.4512-3.3374 0-6-2.6627-6-6 0.00059-2.2764 1.2684-4.2376 3.1523-5.2539z" color="#000" solid-color="#000000" white-space="normal" transform="translate(0 -1020.4)"/></svg>