<svg xmlns="http://www.w3.org/2000/svg" height="32" width="32" viewBox="0 0 31.999999 31.999998"><path d="m10.748 1022.4c0.1649 0.6414 0.24953 1.3007 0.25195 1.9629 0 4.4183-3.5817 8-8 8-0.24979-0.0007-0.49941-0.013-0.74805-0.037 0.56287 2.2142 2.0455 4.0821 4.0742 5.1328-0.20846 0.6094-0.32617 1.2614-0.32617 1.9414 0 3.3137 2.6863 6 6 6h8c4.4183 0 8-3.5817 8-8s-3.5817-8-8-8c-0.69611 0.0002-1.3776 0.097-2.0332 0.2695-0.33565-3.8481-3.373-6.9069-7.2188-7.2695zm2.0996 2.709c1.884 1.0163 3.1518 2.9775 3.1523 5.2539 0 0.04-0.005 0.078-0.006 0.1172-1.2224 0.7081-2.2584 1.737-2.9727 3.0137-0.33715-0.06-0.67889-0.092-1.0214-0.094-1.9128 0-3.6122 0.8988-4.7109 2.2929-0.00049-0.0002-0.002 0.0003-0.002 0-0.81118-0.4262-1.5162-1.0385-2.0664-1.7812 4.1598-0.9833 7.2836-4.4382 7.627-8.8028zm7.1523 6.291c3.3137 0 6 2.6863 6 6s-2.6863 6-6 6h-8c-2.2091 0-4-1.7909-4-4s1.7909-4 4-4c0.76723 0 1.5178 0.2242 2.1621 0.6406 0.6316-2.7152 3.0502-4.6378 5.8379-4.6406z" transform="translate(0 -1020.4)"/></svg>