<svg xmlns="http://www.w3.org/2000/svg" height="32" viewBox="0 0 31.999999 31.999998" width="32"><path d="m15 7c-3.264 0-6.1985 1.9876-7.416 5.016-3.1442 0.218-5.5833 2.832-5.584 5.984 0 3.1615 2.4483 5.7416 5.5508 5.9727l1.1387-1.973h-0.6895c-2.2091 0-4-1.7909-4-4s1.7909-4 4-4c0.36119 0.001 0.72057 0.051 1.0684 0.1484 0.4232-2.9516 2.9498-5.1446 5.9316-5.1484 2.8668 0 5.3313 2.0325 5.8828 4.8457 0.76276-0.5481 1.6779-0.8438 2.6172-0.8457 2.4853 0 4.5 2.0147 4.5 4.5s-2.0147 4.5-4.5 4.5h-0.5l-1.1523 2h1.6523c3.5898 0 6.5-2.9101 6.5-6.5 0-3.5898-2.9102-6.5-6.5-6.5-0.49867 0-0.99543 0.062-1.4805 0.1777-1.399-2.5725-4.092-4.175-7.02-4.178zm-2.5002 16c-0.277 0-0.5 0.446-0.5 1v0.293l-0.20703-0.2071c-0.39174-0.3917-0.86468-0.5493-1.0606-0.3535-0.19587 0.1959-0.0382 0.6688 0.35352 1.0606l0.207 0.207h-0.293c-0.554 0-1 0.223-1 0.5s0.446 0.5 1 0.5h0.29297l-0.20703 0.207c-0.39174 0.3918-0.54939 0.8647-0.35352 1.0606s0.66881 0.038 1.0606-0.3535l0.20703-0.2071v0.293c0 0.554 0.223 1 0.5 1s0.5-0.446 0.5-1v-0.293l0.20703 0.2071c0.39174 0.3917 0.86468 0.5494 1.0606 0.3535 0.19587-0.1959 0.0382-0.6688-0.35352-1.0606l-0.207-0.207h0.29297c0.554 0 1-0.223 1-0.5s-0.446-0.5-1-0.5h-0.29297l0.20703-0.207c0.39174-0.3918 0.54939-0.8647 0.35352-1.0606-0.19587-0.1958-0.66881-0.038-1.0606 0.3535l-0.20703 0.2071v-0.293c0-0.554-0.223-1-0.5-1zm6-3c-0.277 0-0.5 0.446-0.5 1v0.293l-0.20703-0.2071c-0.39174-0.3917-0.86468-0.5493-1.0606-0.3535-0.19587 0.1959-0.0382 0.6688 0.35352 1.0606l0.207 0.207h-0.293c-0.554 0-1 0.223-1 0.5s0.446 0.5 1 0.5h0.29297l-0.20703 0.207c-0.39174 0.3918-0.54939 0.8647-0.35352 1.0606s0.66881 0.038 1.0606-0.3535l0.20703-0.2071v0.293c0 0.554 0.223 1 0.5 1s0.5-0.446 0.5-1v-0.293l0.20703 0.2071c0.39174 0.3917 0.86469 0.5494 1.0606 0.3535 0.19587-0.1959 0.0382-0.6688-0.35353-1.0606l-0.207-0.207h0.29297c0.55401 0 1-0.223 1-0.5s-0.446-0.5-1-0.5h-0.29297l0.20703-0.207c0.39175-0.3918 0.5494-0.8647 0.35353-1.0606-0.19587-0.1958-0.66882-0.038-1.0606 0.3535l-0.20703 0.2071v-0.293c0-0.554-0.223-1-0.5-1z"/></svg>
