<svg xmlns="http://www.w3.org/2000/svg" height="32" width="32" viewBox="0 0 31.999999 31.999998"><path opacity=".96" d="m10 1046.4a1 1 0 0 1 -1 1 1 1 0 0 1 -1 -1 1 1 0 0 1 1 -1 1 1 0 0 1 1 1zm3-1a1 1 0 0 1 -1 1 1 1 0 0 1 -1 -1 1 1 0 0 1 1 -1 1 1 0 0 1 1 1zm-1-3a1 1 0 0 1 -1 1 1 1 0 0 1 -1 -1 1 1 0 0 1 1 -1 1 1 0 0 1 1 1zm3-15c-3.2637 0-6.1985 1.9876-7.416 5.0156-3.1442 0.2186-5.5834 2.8326-5.584 5.9844 0 3.1616 2.4483 5.7416 5.5508 5.9727l1.1387-1.9727h-0.68945c-2.2091 0-4-1.7908-4-4 0-2.2091 1.7909-4 4-4 0.36119 0 0.72057 0.051 1.0684 0.1485 0.4232-2.9517 2.9498-5.1447 5.9316-5.1485 2.8668 0 5.3313 2.0325 5.8828 4.8457 0.76276-0.5481 1.6779-0.8438 2.6172-0.8457 2.4853 0 4.5 2.0147 4.5 4.5s-2.0147 4.5-4.5 4.5h-0.5l-1.1523 2h1.6523c3.5898 0 6.5-2.9101 6.5-6.5 0-3.5898-2.9102-6.5-6.5-6.5-0.49867 0-0.99543 0.062-1.4805 0.1777-1.399-2.5722-4.0915-4.1746-7.0195-4.1777zm2.5 12c-0.277 0-0.5 0.446-0.5 1v1.293l-0.91406-0.9141c-0.39174-0.3917-0.86468-0.5494-1.0606-0.3535-0.19587 0.1959-0.0382 0.6688 0.35352 1.0606l0.91406 0.914h-1.293c-0.554 0-1 0.223-1 0.5s0.446 0.5 1 0.5h1.293l-0.91406 0.9141c-0.39174 0.3917-0.54939 0.8647-0.35352 1.0605 0.19587 0.1959 0.66881 0.038 1.0606-0.3535l0.91406-0.9141v1.293c0 0.554 0.223 1 0.5 1s0.5-0.446 0.5-1v-1.293l0.91406 0.9141c0.39174 0.3917 0.86468 0.5494 1.0606 0.3535 0.19587-0.1958 0.0382-0.6688-0.35352-1.0605l-0.91406-0.9141h1.293c0.554 0 1-0.223 1-0.5s-0.446-0.5-1-0.5h-1.293l0.91406-0.914c0.39174-0.3918 0.54939-0.8647 0.35352-1.0606s-0.66881-0.038-1.0606 0.3535l-0.91406 0.9141v-1.293c0-0.554-0.223-1-0.5-1z" transform="translate(0 -1020.4)"/></svg>
