<svg xmlns="http://www.w3.org/2000/svg" height="32" width="32" viewBox="0 0 31.999999 31.999998"><path d="m15.001 1027.4c-3.2637 0-6.1985 1.9876-7.416 5.0156-3.1442 0.2186-5.5834 2.8326-5.584 5.9844 0 3.1616 2.4483 5.7416 5.5508 5.9727l1.1387-1.9727h-0.68945c-2.2091 0-4-1.7908-4-4 0-2.2091 1.7909-4 4-4 0.36119 0 0.72057 0.051 1.0684 0.1485 0.4232-2.9517 2.9498-5.1447 5.9316-5.1485 2.8668 0 5.3313 2.0325 5.8828 4.8457 0.76276-0.5481 1.6779-0.8438 2.6172-0.8457 2.4853 0 4.5 2.0147 4.5 4.5s-2.0147 4.5-4.5 4.5h-0.5l-1.1523 2h1.6523c3.5898 0 6.5-2.9101 6.5-6.5 0-3.5898-2.9102-6.5-6.5-6.5-0.49867 0-0.99543 0.062-1.4805 0.1777-1.399-2.5722-4.0915-4.1746-7.0195-4.1777zm-4 22a1 1 0 0 0 -1 1 1 1 0 0 0 1 1 1 1 0 0 0 1 -1 1 1 0 0 0 -1 -1zm13-2a1 1 0 0 0 -1 1 1 1 0 0 0 1 1 1 1 0 0 0 1 -1 1 1 0 0 0 -1 -1zm-23-2a1 1 0 0 0 -1 1 1 1 0 0 0 1 1 1 1 0 0 0 1 -1 1 1 0 0 0 -1 -1zm20.008-6a1.0001 1.0001 0 0 0 -0.88086 0.5117l-5.7578 9.9766a1.0001 1.0001 0 0 0 1.3809 1.3555c1.702-1.0235 2.1758-2.1083 5.1641-1.8477a1.0001 1.0001 0 1 0 0.17188 -1.9922c-1.3441-0.1172-2.3331 0.088-3.1934 0.3789l3.9668-6.8711a1.0001 1.0001 0 0 0 -0.85157 -1.5117zm-4 0a1.0001 1.0001 0 0 0 -0.88086 0.5117l-4.0352 6.9883a1.0002 1.0002 0 1 0 1.7324 1l4.0352-6.9883a1.0001 1.0001 0 0 0 -0.85156 -1.5117zm-3.9922-0.012a1.0001 1.0001 0 0 0 -0.88085 0.5117l-5.0137 8.6817c-0.71841-0.9428-1.5539-1.8319-2.8848-2.1543a1.001 1.001 0 1 0 -0.47266 1.9453c1.0118 0.2451 1.7576 1.2552 2.6367 2.5722a1.0001 1.0001 0 0 0 1.6992 -0.057l5.7656-9.9883a1.0001 1.0001 0 0 0 -0.84962 -1.5117z" transform="translate(0 -1020.4)"/></svg>
