<svg xmlns="http://www.w3.org/2000/svg" height="32" width="32" viewBox="0 0 31.999999 31.999998"><path d="m12 1020.4c-0.554 0-1 0.446-1 1v1c0 0.554 0.446 1 1 1s1-0.446 1-1v-1c0-0.554-0.446-1-1-1zm-7.7773 3.2207c-0.25562 0-0.51117 0.099-0.70703 0.2949-0.39174 0.3918-0.39174 1.0224 0 1.4141l0.70703 0.707c0.39173 0.3918 1.0223 0.3918 1.4141 0 0.39174-0.3917 0.39174-1.0223 0-1.414l-0.70703-0.7071c-0.19587-0.1958-0.45142-0.2949-0.70703-0.2949zm15.555 0c-0.25561 0-0.51116 0.099-0.70703 0.2949l-0.70703 0.7071c-0.39174 0.3917-0.39174 1.0223 0 1.414 0.39174 0.3918 1.0223 0.3918 1.4141 0l0.70704-0.707c0.39173-0.3917 0.39173-1.0223 0-1.4141-0.19587-0.1958-0.45142-0.2949-0.70704-0.2949zm-7.7773 0.7793c-4.4183 0-8 3.5817-8 8 0 2.1312 0.83867 4.0623 2.1973 5.4961-0.12446 0.4813-0.19727 0.9837-0.19727 1.5039 0 3.3137 2.6863 6 6 6h8c4.4183 0 8-3.5817 8-8s-3.5817-8-8-8c-0.19318 0.0001-0.3814 0.025-0.57227 0.039-1.1778-2.9509-4.0566-5.0391-7.4277-5.0391zm0 2c2.3988 0 4.4636 1.4109 5.4238 3.4453-1.839 0.6283-3.4242 1.9003-4.4024 3.6485-0.33719-0.06-0.67893-0.092-1.0215-0.094-2.0062 0-3.7778 0.9876-4.8672 2.5-0.70997-0.9858-1.1328-2.1926-1.1328-3.5001 0-3.3137 2.6863-6 6-6zm-11 5c-0.554 0-1 0.446-1 1s0.446 1 1 1h1c0.554 0 1-0.446 1-1s-0.446-1-1-1h-1zm19 0c3.3137 0 6 2.6863 6 6s-2.6863 6-6 6h-8c-2.2091 0-4-1.7909-4-4s1.7909-4 4-4c0.76723 0 1.5178 0.2242 2.1621 0.6406 0.6316-2.7152 3.0502-4.6378 5.8379-4.6406zm-13.131 4.9043c-0.0178 0.03-0.0374 0.058-0.0547 0.088 0.0174-0.03 0.0368-0.058 0.0547-0.088z" transform="translate(0 -1020.4)"/></svg>
