<svg xmlns="http://www.w3.org/2000/svg" height="32" width="32" viewBox="0 0 31.999999 31.999998"><path d="m16.959 1025.5c-4.1082 1.9035-6.78 5.9409-6.9434 10.441a6 6 0 0 0 -0.0156 0.4237 6 6 0 0 0 0.23828 1.6563c-1.8889-0.4463-3.6417-1.343-5.1074-2.6153 1.9035 4.1082 5.941 6.78 10.441 6.9434a6 6 0 0 0 0.42773 0.016 6 6 0 0 0 1.6562 -0.2383c-0.44623 1.8889-1.343 3.6417-2.6152 5.1075 4.1082-1.9035 6.78-5.941 6.9434-10.442a6 6 0 0 0 0.0156 -0.4237 6 6 0 0 0 -0.23828 -1.6562c1.8889 0.4462 3.6417 1.3429 5.1074 2.6152-1.9035-4.1082-5.941-6.78-10.441-6.9434a6 6 0 0 0 -0.004 0 6 6 0 0 0 -0.42373 -0.016 6 6 0 0 0 -1.6562 0.2383c0.44623-1.8889 1.343-3.6417 2.6152-5.1074zm-0.95898 6.8691a4 4 0 0 1 4 4 4 4 0 0 1 -4 4 4 4 0 0 1 -4 -4 4 4 0 0 1 4 -4z" transform="translate(0 -1020.4)"/></svg>
