<svg xmlns="http://www.w3.org/2000/svg" height="32" width="32" viewBox="0 0 31.999999 31.999998"><path d="m15.001 1022.4c-0.554 0-1 0.446-1 1v1c0 0.554 0.446 1 1 1s1-0.446 1-1v-1c0-0.554-0.446-1-1-1zm-6.3633 2.6348c-0.25562 0-0.51116 0.099-0.70703 0.2949-0.39174 0.3918-0.39174 1.0223 0 1.4141l0.70703 0.707c0.39174 0.3917 1.0223 0.3917 1.414 0 0.39174-0.3917 0.39174-1.0223 0-1.4141l-0.70702-0.707c-0.19587-0.1959-0.45141-0.2949-0.70703-0.2949zm12.727 0c-0.25562 0-0.51116 0.099-0.70703 0.2949l-0.70703 0.707c-0.39174 0.3918-0.39174 1.0224 0 1.4141 0.12396 0.124 0.27498 0.1947 0.43164 0.2402 0.31912-0.1092 0.64521-0.2049 0.99023-0.248l0.69922-0.6992c0.39174-0.3918 0.39174-1.0223 0-1.4141-0.19587-0.1959-0.45141-0.2949-0.70703-0.2949zm-6.3633 1.3652a6 6 0 0 0 -6 6 6 6 0 0 0 6 6 6 6 0 0 0 2 -0.3515v-2.1895a4 4 0 0 1 -2 0.541 4 4 0 0 1 -4 -4 4 4 0 0 1 4 -4 4 4 0 0 1 2.8535 1.1992c0.37586-0.5566 0.86548-1.0271 1.4297-1.3925a6 6 0 0 0 -4.2832 -1.8067zm-9 5c-0.554 0-1 0.446-1 1s0.446 1 1 1h1c0.554 0 1-0.446 1-1s-0.446-1-1-1h-1zm3.3438 5.6563c-0.25562 0-0.51116 0.097-0.70703 0.2929l-0.70703 0.7071c-0.39173 0.3917-0.39173 1.0223 0 1.414 0.39174 0.3918 1.0223 0.3918 1.4141 0l0.70702-0.707c0.39174-0.3917 0.39174-1.0223 0-1.4141-0.19585-0.1958-0.4514-0.2929-0.70702-0.2929zm5.6562 2.3437c-0.554 0-1 0.446-1 1v1c0 0.554 0.446 1 1 1s1-0.446 1-1v-1c0-0.554-0.446-1-1-1zm7-11c-2.216 0-4 1.784-4 4v10.008c-0.64751 0.8634-0.99831 1.913-1 2.9922 0 2.7614 2.2386 5 5 5s5-2.2386 5-5c-0.003-1.0765-0.35409-2.1231-1-2.9843v-10.016c0-2.216-1.784-4-4-4zm0 2c1.108 0 2 0.892 2 2v10.768c0.63536 0.5683 0.99896 1.38 1 2.2324 0 1.6569-1.3432 3-3 3s-3-1.3431-3-3c0.002-0.8517 0.36515-1.6626 1-2.2304v-10.77c0-1.108 0.892-2 2-2zm0 1c-0.554 0-1 0.446-1 1v11.272c-0.61771 0.3566-0.99874 1.0153-1 1.7285 0 1.1046 0.89543 2 2 2s2-0.8954 2-2c-0.00056-0.7139-0.38169-1.3735-1-1.7304v-11.27c0-0.554-0.446-1-1-1z" transform="translate(0 -1020.4)"/></svg>
