<svg xmlns="http://www.w3.org/2000/svg" height="32" viewBox="0 0 31.999999 31.999996" width="32"><path d="m22 2.9995s-3 4.3432-3 6c0 1.6569 1.3432 3 3 3s3-1.3431 3-3c0-1.6568-3-6-3-6zm0 3s1 2.4477 1 3-0.44772 1-1 1c-0.55229 0-1-0.4477-1-1s1-3 1-3zm-10.996 3.0004c-1.0225 0-2.0446 0.3904-2.8281 1.1738-0.78899 0.7891-1.1794 1.822-1.1738 2.8516-0.004 3.9812-0.002 6.9852-0.002 10.975 0 0.554 0.446 1 1 1s1-0.446 1-1v-7.3437l1 1v4.3437c0 0.554 0.446 1 1 1s1-0.446 1-1v-2.3437l1 1v5.3437c0 0.554 0.446 1 1 1s1-0.446 1-1v-3.3437l0.0566 0.057c0.15266 1.0683 0.64628 2.058 1.4082 2.8223 1.9526 1.9526 5.1177 1.9526 7.0703 0s1.9526-5.1177 0-7.0703c-0.764-0.759-1.751-1.252-2.817-1.404l-6.887-6.887c-0.783-0.7834-1.805-1.1737-2.828-1.1737zm0 2.002c0.51124 0 1.0223 0.1942 1.4141 0.5859l7.418 7.4199c0.85111-0.047 1.6817 0.2691 2.2852 0.8711 1.1716 1.1716 1.1716 3.0706 0 4.2422-1.1716 1.1715-3.0706 1.1716-4.2422 0-0.60083-0.6037-0.91845-1.4347-0.8711-2.2851l-7.418-7.418c-0.78345-0.7835-0.78348-2.0466 0-2.8301 0.39174-0.3917 0.90282-0.5859 1.4141-0.5859zm8.9961 8.998c-0.51185 0-1.0236 0.1955-1.4141 0.586-0.78105 0.7811-0.78107 2.047 0 2.8281 0.78107 0.781 2.0471 0.781 2.8281 0 0.78105-0.7811 0.78107-2.047 0-2.8281-0.39053-0.3905-0.90222-0.586-1.4141-0.586z"/></svg>
